<svg version="1.1" id="Layer_1" xmlns="http://www.w3.org/2000/svg" xmlns:xlink="http://www.w3.org/1999/xlink" x="0px" y="0px"
	 width="100%" viewBox="0 0 50 50" enable-background="new 0 0 50 50" xml:space="preserve">
<path fill="#000000" opacity="1.000000" stroke="none" 
	d="
M1.000000,26.000059 
	C1.000000,17.333385 1.000000,9.166721 1.000000,1.000043 
	C17.666643,1.000028 34.333286,1.000028 50.999947,1.000014 
	C50.999962,17.666637 50.999962,34.333275 50.999981,50.999931 
	C34.333366,50.999954 17.666735,50.999954 1.000051,50.999977 
	C1.000000,42.833355 1.000000,34.666714 1.000000,26.000059 
M21.044495,46.368877 
	C22.276304,50.119278 25.488594,49.189346 27.973305,48.820896 
	C29.126896,48.649837 30.737490,46.647419 30.863964,45.350662 
	C31.308228,40.795662 34.021778,41.440079 36.214077,43.157162 
	C38.835106,45.210033 40.364883,45.387775 42.814789,42.866173 
	C45.162468,40.449795 45.395111,38.956684 43.201290,36.272015 
	C41.514320,34.207600 40.623600,31.242126 45.285744,30.973692 
	C48.300781,30.800093 49.179462,29.089159 49.111786,26.078100 
	C49.048203,23.248781 48.620342,21.162344 45.446983,21.038187 
	C40.969273,20.862999 41.361000,18.231682 43.122314,15.851292 
	C45.001614,13.311441 45.631001,11.722952 42.922066,9.243499 
	C40.544422,7.067273 39.112282,6.493076 36.340961,8.750332 
	C33.957386,10.691770 31.088736,11.199272 30.918850,6.301236 
	C30.807751,3.098042 28.327635,2.973653 25.668388,2.912425 
	C22.906242,2.848828 21.147051,3.640812 21.041590,6.468389 
	C20.850653,11.587812 17.705601,10.435551 15.514732,8.662969 
	C12.940326,6.580074 11.528787,6.814192 9.330442,9.037622 
	C7.120305,11.272980 6.344336,12.758722 8.703270,15.591612 
	C10.555778,17.816326 11.409740,20.904629 6.384960,21.058485 
	C3.548602,21.145336 2.855211,23.028164 2.910168,25.751854 
	C2.964578,28.448425 3.146583,30.828157 6.384216,30.939404 
	C11.405249,31.111927 10.557773,34.180557 8.703867,36.407623 
	C6.346392,39.239624 7.117877,40.726009 9.329749,42.961689 
	C11.527675,45.183273 12.938973,45.422806 15.513844,43.337387 
	C17.705963,41.561962 20.943600,40.410297 21.044495,46.368877 
z"/>
<path fill="#FFFFFF" opacity="1.000000" stroke="none" 
	d="
M21.023993,45.950363 
	C20.943600,40.410297 17.705963,41.561962 15.513844,43.337387 
	C12.938973,45.422806 11.527675,45.183273 9.329749,42.961689 
	C7.117877,40.726009 6.346392,39.239624 8.703867,36.407623 
	C10.557773,34.180557 11.405249,31.111927 6.384216,30.939404 
	C3.146583,30.828157 2.964578,28.448425 2.910168,25.751854 
	C2.855211,23.028164 3.548602,21.145336 6.384960,21.058485 
	C11.409740,20.904629 10.555778,17.816326 8.703270,15.591612 
	C6.344336,12.758722 7.120305,11.272980 9.330442,9.037622 
	C11.528787,6.814192 12.940326,6.580074 15.514732,8.662969 
	C17.705601,10.435551 20.850653,11.587812 21.041590,6.468389 
	C21.147051,3.640812 22.906242,2.848828 25.668388,2.912425 
	C28.327635,2.973653 30.807751,3.098042 30.918850,6.301236 
	C31.088736,11.199272 33.957386,10.691770 36.340961,8.750332 
	C39.112282,6.493076 40.544422,7.067273 42.922066,9.243499 
	C45.631001,11.722952 45.001614,13.311441 43.122314,15.851292 
	C41.361000,18.231682 40.969273,20.862999 45.446983,21.038187 
	C48.620342,21.162344 49.048203,23.248781 49.111786,26.078100 
	C49.179462,29.089159 48.300781,30.800093 45.285744,30.973692 
	C40.623600,31.242126 41.514320,34.207600 43.201290,36.272015 
	C45.395111,38.956684 45.162468,40.449795 42.814789,42.866173 
	C40.364883,45.387775 38.835106,45.210033 36.214077,43.157162 
	C34.021778,41.440079 31.308228,40.795662 30.863964,45.350662 
	C30.737490,46.647419 29.126896,48.649837 27.973305,48.820896 
	C25.488594,49.189346 22.276304,50.119278 21.023993,45.950363 
M27.999952,8.475230 
	C27.539202,7.250519 27.078453,6.025808 26.057686,3.312516 
	C24.940496,5.867787 24.244310,6.900944 24.040297,8.023545 
	C23.156643,12.885881 19.004818,14.781127 14.716232,12.273908 
	C13.919306,11.808003 12.844776,11.816940 11.898367,11.606729 
	C12.032212,12.670262 11.857752,13.911872 12.351854,14.767324 
	C14.844210,19.082399 12.898449,23.194643 7.937633,24.046179 
	C6.830235,24.236265 5.820125,24.993116 3.503846,26.082005 
	C5.892324,27.086426 6.938664,27.759239 8.069145,27.961292 
	C12.807321,28.808168 14.708471,33.074265 12.242778,37.316647 
	C11.783957,38.106071 11.827535,39.187492 11.639250,40.134155 
	C12.702533,39.978386 13.937071,40.117737 14.800130,39.616920 
	C19.054476,37.148193 23.177748,39.144840 24.047869,44.107918 
	C24.240658,45.207554 25.020977,46.204189 25.822622,47.845982 
	C26.892328,46.379757 27.735403,45.705578 27.932083,44.877811 
	C29.397100,38.711952 32.346058,37.276123 37.700615,40.140446 
	C38.365780,40.496265 39.337177,40.279617 40.166676,40.328236 
	C40.109032,39.380287 40.363518,38.255737 39.943264,37.512947 
	C37.141029,32.560051 38.834541,29.123240 44.649307,27.931179 
	C45.583721,27.739620 46.365921,26.805611 47.284485,26.169083 
	C46.717907,25.414400 46.485622,24.961725 46.125019,24.664980 
	C45.764561,24.368353 45.296490,24.132826 44.840054,24.033028 
	C38.703728,22.691319 37.306026,19.710630 40.170795,14.265897 
	C40.518429,13.605197 40.268635,12.630160 40.295719,11.800805 
	C39.347794,11.880149 38.233536,11.663877 37.479649,12.088068 
	C33.388836,14.389854 30.464130,13.584538 27.999952,8.475230 
z"/>
<path fill="#000000" opacity="1.000000" stroke="none" 
	d="
M28.000771,8.882349 
	C30.464130,13.584538 33.388836,14.389854 37.479649,12.088068 
	C38.233536,11.663877 39.347794,11.880149 40.295723,11.800805 
	C40.268635,12.630160 40.518429,13.605197 40.170795,14.265897 
	C37.306026,19.710630 38.703728,22.691319 44.840054,24.033028 
	C45.296490,24.132826 45.764561,24.368353 46.125019,24.664980 
	C46.485622,24.961725 46.717907,25.414400 47.284485,26.169083 
	C46.365921,26.805611 45.583721,27.739620 44.649307,27.931179 
	C38.834541,29.123240 37.141029,32.560051 39.943264,37.512947 
	C40.363518,38.255737 40.109032,39.380287 40.166676,40.328236 
	C39.337177,40.279617 38.365780,40.496265 37.700615,40.140446 
	C32.346058,37.276123 29.397100,38.711952 27.932083,44.877811 
	C27.735403,45.705578 26.892328,46.379757 25.822622,47.845982 
	C25.020977,46.204189 24.240658,45.207554 24.047869,44.107918 
	C23.177748,39.144840 19.054476,37.148193 14.800130,39.616920 
	C13.937071,40.117737 12.702533,39.978386 11.639250,40.134155 
	C11.827535,39.187492 11.783957,38.106071 12.242778,37.316647 
	C14.708471,33.074265 12.807321,28.808168 8.069145,27.961292 
	C6.938664,27.759239 5.892324,27.086426 3.503846,26.082005 
	C5.820125,24.993116 6.830235,24.236265 7.937633,24.046179 
	C12.898449,23.194643 14.844210,19.082399 12.351854,14.767324 
	C11.857752,13.911872 12.032212,12.670262 11.898367,11.606729 
	C12.844776,11.816940 13.919306,11.808003 14.716232,12.273908 
	C19.004818,14.781127 23.156643,12.885881 24.040297,8.023545 
	C24.244310,6.900944 24.940496,5.867787 26.057686,3.312516 
	C27.078453,6.025808 27.539202,7.250519 28.000771,8.882349 
M33.998585,23.863800 
	C32.122982,18.540800 28.809259,16.764975 23.087168,18.016365 
	C19.185240,18.869698 17.223425,22.682285 18.021372,28.198771 
	C18.733137,33.119469 22.113792,34.200703 26.499189,34.032715 
	C32.379230,33.807472 33.982014,31.930136 33.998585,23.863800 
z"/>
<path fill="#FFFFFF" opacity="1.000000" stroke="none" 
	d="
M33.999245,24.294645 
	C33.982014,31.930136 32.379230,33.807472 26.499189,34.032715 
	C22.113792,34.200703 18.733137,33.119469 18.021372,28.198771 
	C17.223425,22.682285 19.185240,18.869698 23.087168,18.016365 
	C28.809259,16.764975 32.122982,18.540800 33.999245,24.294645 
M30.974091,28.095598 
	C30.982674,27.434338 30.966803,26.771704 31.003813,26.112038 
	C31.243750,21.835367 28.788017,20.713594 25.079552,20.996481 
	C21.219084,21.290962 20.584969,23.961248 21.105247,26.942156 
	C21.349060,28.339067 22.736515,30.647945 23.549805,30.624273 
	C25.934790,30.554852 28.291750,29.522600 30.974091,28.095598 
z"/>
<path fill="#000000" opacity="1.000000" stroke="none" 
	d="
M30.816887,28.481541 
	C28.291750,29.522600 25.934790,30.554852 23.549805,30.624273 
	C22.736515,30.647945 21.349060,28.339067 21.105247,26.942156 
	C20.584969,23.961248 21.219084,21.290962 25.079552,20.996481 
	C28.788017,20.713594 31.243750,21.835367 31.003813,26.112038 
	C30.966803,26.771704 30.982674,27.434338 30.816887,28.481541 
z"/>
</svg>